<?xml version="1.0"?>
<svg xmlns="http://www.w3.org/2000/svg" xmlns:xlink="http://www.w3.org/1999/xlink" xmlns:svgjs="http://svgjs.com/svgjs" version="1.1" width="512" height="512" x="0" y="0" viewBox="0 0 24 24" style="enable-background:new 0 0 512 512" xml:space="preserve"><g><path xmlns="http://www.w3.org/2000/svg" d="m15 20h-10a5.006 5.006 0 0 1 -5-5v-10a5.006 5.006 0 0 1 5-5h10a5.006 5.006 0 0 1 5 5v10a5.006 5.006 0 0 1 -5 5zm-10-18a3 3 0 0 0 -3 3v10a3 3 0 0 0 3 3h10a3 3 0 0 0 3-3v-10a3 3 0 0 0 -3-3zm19 17v-13a1 1 0 0 0 -2 0v13a3 3 0 0 1 -3 3h-13a1 1 0 0 0 0 2h13a5.006 5.006 0 0 0 5-5z" fill="#ffffff" data-original="#000000" data-darkreader-inline-fill="" style="--darkreader-inline-fill:#181a1b;"/></g></svg>
